Coordinates
version=1
nRows=11
nColumns=40
inDegrees=yes

Units are S.I. units (second, meters, Newtons, ...)
Angles are in degrees.

endheader
time	pelvis_tilt	pelvis_list	pelvis_rotation	pelvis_tx	pelvis_ty	pelvis_tz	hip_flexion_r	hip_adduction_r	hip_rotation_r	knee_angle_r	knee_angle_r_beta	ankle_angle_r	subtalar_angle_r	mtp_angle_r	hip_flexion_l	hip_adduction_l	hip_rotation_l	knee_angle_l	knee_angle_l_beta	ankle_angle_l	subtalar_angle_l	mtp_angle_l	lumbar_extension	lumbar_bending	lumbar_rotation	arm_flex_r	arm_add_r	arm_rot_r	elbow_flex_r	pro_sup_r	wrist_flex_r	wrist_dev_r	arm_flex_l	arm_add_l	arm_rot_l	elbow_flex_l	pro_sup_l	wrist_flex_l	wrist_dev_l
     41.40750000	     -3.54445338	     -5.54739348	     -0.21939601	      1.07103012	      0.91737711	      0.49368554	     23.66796602	      1.80016053	    -14.77770253	     21.54836103	     21.54836103	      3.72590198	     -2.55334296	     -5.14166682	      8.77932003	    -12.47779076	     -2.64175063	     47.35850347	     47.35850347	     10.51705605	    -16.00267087	     -9.33958876	    -12.32807966	      6.27280448	      1.62013770	     -8.82645666	    -11.61417563	     -7.48579452	     27.76865628	     46.37994262	      0.00000000	      0.00000000	      6.66036818	    -12.44212688	     -8.21609005	    100.29129519	     48.29328423	      0.00000000	      0.00000000
     41.41971429	     -3.54317512	     -5.76279020	      0.15585789	      1.07059826	      0.91889890	      0.49621139	     22.72701630	      2.05327183	    -15.61762320	     20.99092856	     20.99092856	      4.35534562	     -1.36710521	     -5.47395601	     11.59885739	    -12.96679509	     -1.82826627	     52.08755399	     52.08755399	     10.43189074	    -16.34309916	     -3.91503679	    -12.35101454	      6.62478807	      2.08091705	     -7.30218326	    -11.69928856	     -6.21522004	     28.11577473	     46.27815103	      0.00000000	      0.00000000	      5.61550067	    -11.85748923	     -7.47906737	     98.51276614	     48.23520765	      0.00000000	      0.00000000
     41.43192857	     -3.51701272	     -6.07779816	      0.52008705	      1.06999348	      0.92035518	      0.49876400	     21.75340631	      2.50561945	    -16.24197466	     20.34235749	     20.34235749	      4.83581485	     -0.72197445	     -5.59423352	     14.25255270	    -13.68510503	     -1.34596130	     55.98622067	     55.98622067	      8.85287841	    -17.22531014	     -2.93666256	    -12.46320707	      7.07633764	      2.40744265	     -5.59470933	    -11.72965549	     -6.06073183	     28.79830208	     46.25209585	      0.00000000	      0.00000000	      4.22384595	    -11.43565253	     -6.89749006	     97.21832169	     48.16894816	      0.00000000	      0.00000000
     41.44414286	     -3.47527873	     -6.20002567	      0.86517393	      1.06918221	      0.92183268	      0.50095155	     20.77848769	      2.64531318	    -17.23346723	     19.75394747	     19.75394747	      5.34426623	      0.73959687	     -5.80196263	     17.12167544	    -13.98547549	     -0.74173119	     59.96262686	     59.96262686	     10.32365366	    -16.97555743	      5.00708994	    -12.53606392	      7.32150088	      2.94666217	     -3.97187063	    -12.04707668	     -4.50464668	     29.48295713	     46.12199795	      0.00000000	      0.00000000	      3.44526296	    -11.09518094	     -5.79385706	     94.23823925	     48.07161420	      0.00000000	      0.00000000
     41.45635714	     -3.43616956	     -6.45109529	      1.22742754	      1.06825834	      0.92309279	      0.50323090	     19.82127931	      3.03553911	    -17.88553975	     19.10490333	     19.10490333	      5.73697986	      1.46266971	     -5.88277868	     19.71800459	    -14.58312595	     -0.42634357	     62.79754230	     62.79754230	      9.33155438	    -17.62610845	      5.47927908	    -12.67605265	      7.66739383	      3.20470691	     -2.10231534	    -12.22992189	     -4.41996667	     30.22152738	     46.10114116	      0.00000000	      0.00000000	      2.04259727	    -10.74661597	     -5.26221693	     92.51815995	     47.99787120	      0.00000000	      0.00000000
     41.46857143	     -3.33678783	     -6.60145752	      1.55026745	      1.06728619	      0.92444596	      0.50536204	     18.76350182	      3.29888495	    -18.69499720	     18.39303647	     18.39303647	      6.10654096	      2.68715983	     -6.01263554	     22.16586584	    -15.05540759	     -0.25005394	     65.06288251	     65.06288251	      9.07404467	    -17.95079911	      6.73712716	    -12.82343078	      7.93661443	      3.39822718	     -0.02358293	    -12.40661096	     -4.13477042	     30.83557705	     46.07364452	      0.00000000	      0.00000000	      0.99777576	    -10.52421647	     -4.70074386	     89.41255432	     47.90063321	      0.00000000	      0.00000000
     41.48078571	     -3.22674801	     -6.68852838	      1.85705272	      1.06620718	      0.92572104	      0.50733512	     17.80895648	      3.47635447	    -19.44483288	     17.89054889	     17.89054889	      6.52755038	      3.82968756	     -6.10682083	     24.57547889	    -15.38678481	     -0.08783486	     66.82556861	     66.82556861	      9.66185065	    -17.98071349	      9.54608231	    -12.97820848	      8.12331467	      4.27958204	      1.79557823	    -12.84645943	     -3.42031945	     30.90945464	     46.03874288	      0.00000000	      0.00000000	      0.72105404	     -9.93387440	     -3.76808440	     85.19650406	     47.77456325	      0.00000000	      0.00000000
     41.49300000	     -3.11684000	     -6.82550851	      2.17105046	      1.06508816	      0.92686931	      0.50933346	     16.82024358	      3.81925998	    -19.85136239	     17.23997222	     17.23997222	      6.84358732	      4.34599804	     -6.08235146	     26.80419799	    -15.79784167	     -0.01465247	     67.79594063	     67.79594063	      9.64022294	    -18.11434385	      9.87632285	    -13.17478624	      8.32094522	      4.30488054	      4.01908195	    -13.02647045	     -3.37211717	     31.74658771	     46.01949461	      0.00000000	      0.00000000	     -0.65360008	     -9.91781229	     -3.21927527	     82.63534057	     47.68678383	      0.00000000	      0.00000000
     41.50521429	     -2.97447850	     -6.90531899	      2.46809713	      1.06396933	      0.92799868	      0.51116778	     15.82425167	      4.08969010	    -20.26605643	     16.65166124	     16.65166124	      7.19282967	      4.98289521	     -6.12210676	     28.82530917	    -16.07969584	      0.02362458	     68.10131362	     68.10131362	      9.78651413	    -18.15899796	     10.22049383	    -13.37339199	      8.44088200	      4.49825231	      6.28476130	    -13.26565019	     -3.26113937	     32.29922395	     46.00844994	      0.00000000	      0.00000000	     -1.64149655	     -9.66315896	     -2.77490032	     79.06236354	     47.59063176	      0.00000000	      0.00000000
     41.51742857	     -2.83098935	     -6.90426293	      2.74336597	      1.06278207	      0.92905239	      0.51278077	     14.85694015	      4.27357717	    -20.62260177	     16.10114805	     16.10114805	      7.51955792	      5.52134038	     -6.16344425	     30.64977074	    -16.22173962	     -0.03181897	     67.76319264	     67.76319264	      9.97888840	    -18.14400115	     10.47412303	    -13.57154128	      8.56036538	      4.75418752	      8.60039885	    -13.46932968	     -3.15249848	     32.73440698	     46.00267171	      0.00000000	      0.00000000	     -2.39852428	     -9.40711284	     -2.43567039	     75.00958825	     47.49533354	      0.00000000	      0.00000000
     41.52964286	     -2.68990913	     -6.89431034	      3.00202470	      1.06158956	      0.92998431	      0.51423869	     13.92669261	      4.45694194	    -20.85015018	     15.60768522	     15.60768522	      7.86365178	      5.89629049	     -6.21239056	     32.26566655	    -16.27385017	     -0.07713920	     66.80128057	     66.80128057	     10.11552770	    -18.09209973	     10.61567918	    -13.75889924	      8.64410881	      4.89140251	     10.99196886	    -13.63678990	     -3.11573006	     33.30404389	     45.99618444	      0.00000000	      0.00000000	     -3.31887808	     -9.15671508	     -2.14112388	     71.10909235	     47.40437843	      0.00000000	      0.00000000
